<?xml version="1.0" encoding="UTF-8"?>
<svg xmlns="http://www.w3.org/2000/svg" width="120" height="80" viewBox="0 0 120 80">
  <defs>
    <linearGradient id="bg" x1="0" y1="0" x2="1" y2="1">
      <stop offset="0%" stop-color="#283593"/>
      <stop offset="100%" stop-color="#1A237E"/>
    </linearGradient>
  </defs>
  <rect rx="12" ry="12" width="120" height="80" fill="url(#bg)"/>
  <g fill="#0D47A1" opacity="0.7">
    <rect x="16" y="36" width="20" height="28"/>
    <rect x="40" y="28" width="24" height="36"/>
    <rect x="68" y="40" width="28" height="24"/>
  </g>
  <g fill="#FFD54F">
    <rect x="20" y="40" width="4" height="4"/>
    <rect x="28" y="48" width="4" height="4"/>
    <rect x="46" y="32" width="4" height="4"/>
    <rect x="54" y="40" width="4" height="4"/>
    <rect x="74" y="44" width="4" height="4"/>
    <rect x="82" y="52" width="4" height="4"/>
  </g>
  <g>
    <path d="M92 20c0 6-4 10-10 10s-10-4-10-10c0-6 4-10 10-10s10 4 10 10z" fill="#FFF176" opacity="0.9"/>
    <circle cx="94" cy="12" r="2" fill="#FFFDE7"/>
    <circle cx="86" cy="8" r="1.5" fill="#FFFDE7"/>
    <circle cx="100" cy="18" r="1.5" fill="#FFFDE7"/>
  </g>
</svg>