<?xml version="1.0" encoding="UTF-8"?>
<svg xmlns="http://www.w3.org/2000/svg" width="120" height="80" viewBox="0 0 120 80">
  <defs>
    <linearGradient id="bg" x1="0" y1="0" x2="1" y2="1">
      <stop offset="0%" stop-color="#bbdefb"/>
      <stop offset="100%" stop-color="#90caf9"/>
    </linearGradient>
  </defs>
  <rect rx="12" ry="12" width="120" height="80" fill="url(#bg)"/>
  <g transform="translate(60,36)">
    <path d="M-26 8c-8 0-14-6-14-14s6-14 14-14c5 0 9 3 11 7 2-2 6-3 9-3 9 0 16 7 16 16 0 4-1 6-3 8H-26z" fill="#90A4AE"/>
  </g>
  <g fill="#1E88E5">
    <path d="M40 52c0 4-4 8-4 8s-4-4-4-8 4-8 4-8 4 4 4 8z"/>
    <path d="M60 52c0 4-4 8-4 8s-4-4-4-8 4-8 4-8 4 4 4 8z"/>
    <path d="M80 52c0 4-4 8-4 8s-4-4-4-8 4-8 4-8 4 4 4 8z"/>
  </g>
</svg>